<svg width="539" height="606" viewBox="0 0 539 606" fill="none" xmlns="http://www.w3.org/2000/svg">
<path d="M539 293.043V182.626C539 161.605 527.798 142.133 509.596 131.659L287.85 3.61417C285.123 1.99148 282.249 0.811344 279.301 0V53.4012H259.699V0C256.677 0.811344 253.803 1.99148 251.003 3.61417L29.404 131.659C11.2015 142.206 0 161.605 0 182.7V293.043H53.5757V312.589H0V426.25C0 447.272 11.2015 466.744 29.404 477.291L240.022 598.993C246.213 602.533 252.845 604.894 259.699 606V552.23H279.301V606C286.081 604.894 292.714 602.533 298.904 598.993L509.596 477.291C527.798 466.744 539 447.272 539 426.25V312.589H484.687V293.043H539ZM443.271 356.917L419.542 469.768C417.994 477.365 411.214 482.602 403.771 482.602C402.666 482.602 401.56 482.602 400.381 482.233C391.685 480.389 386.084 471.833 387.927 463.13L408.34 365.621L380.557 358.983C380.336 364.957 379.894 371.3 379.231 377.939C373.114 442.035 319.907 499.788 270.163 499.788H268.837C219.093 499.788 165.886 442.035 159.769 377.939C159.106 371.3 158.664 364.957 158.443 358.983L130.66 365.621L151.073 463.13C152.916 471.833 147.315 480.389 138.619 482.233C137.44 482.528 136.334 482.602 135.229 482.602C127.786 482.602 121.006 477.365 119.458 469.768L95.7289 356.917C93.9602 348.361 99.2662 339.879 107.815 337.888L159.622 325.423C160.875 315.465 163.012 306.983 165.886 299.681L107.815 285.741C99.7821 283.823 94.4761 276.078 95.5815 267.891L105.53 192.436C106.709 183.511 114.816 177.315 123.659 178.496C132.576 179.676 138.766 187.789 137.587 196.64L129.555 257.638L187.773 271.653C196.322 265.752 206.639 262.064 218.356 259.777C180.919 250.115 182.836 227.84 191.605 203.869L165.812 187.642C158.295 182.921 156.011 172.89 160.727 165.367L193.447 113.293C198.238 105.696 208.186 103.483 215.777 108.204C223.294 112.998 225.578 122.955 220.862 130.553L196.764 168.907L206.639 175.103C213.419 165.957 221.746 158.138 231.99 152.385C242.307 146.706 254.466 143.239 268.837 142.944H270.163C298.904 143.534 318.875 156.884 332.361 175.103L342.236 168.907L318.138 130.553C313.422 122.955 315.706 112.998 323.223 108.204C330.814 103.483 340.762 105.696 345.552 113.293L378.273 165.367C382.989 172.89 380.705 182.921 373.188 187.642L347.395 203.869C356.164 227.84 358.081 250.115 320.644 259.777C332.361 262.064 342.678 265.752 351.227 271.653L409.445 257.638L401.413 196.64C400.234 187.789 406.424 179.676 415.341 178.496C424.184 177.315 432.291 183.511 433.47 192.436L443.419 267.891C444.524 276.078 439.218 283.823 431.185 285.741L373.114 299.681C375.988 306.983 378.125 315.465 379.378 325.423L431.185 337.888C439.734 339.879 445.04 348.361 443.271 356.917Z" fill="white"/>
</svg>
