<svg xmlns="http://www.w3.org/2000/svg" fill="none" viewBox="0 0 36 36">
  <path fill="#EA580C" d="M18 2.25c-8.75 0-15.75 7-15.75 15.75S9.25 33.75 18 33.75 33.75 26.75 33.75 18 26.75 2.25 18 2.25zm0 28.5c-7.04 0-12.75-5.71-12.75-12.75S10.96 5.25 18 5.25 30.75 10.96 30.75 18 25.04 30.75 18 30.75z"/>
  <path fill="#EA580C" d="M23.25 16.5h-3.75v-3.75c0-.83-.67-1.5-1.5-1.5s-1.5.67-1.5 1.5v3.75h-3.75c-.83 0-1.5.67-1.5 1.5s.67 1.5 1.5 1.5h3.75v3.75c0 .83.67 1.5 1.5 1.5s1.5-.67 1.5-1.5V19.5h3.75c.83 0 1.5-.67 1.5-1.5s-.67-1.5-1.5-1.5z"/>
</svg>